{"title":"Invoked 2015 720p HDRip HC x264 VICTRY","uid":12496916,"size":1992715864,"categoryP":"video","categoryS":"movies","magnet":"?xt=urn:btih:3be869fb3ce086eb5715bb4a14a8625ce188a5f2&amp;dn=Invoked+2015+720p+HDRip+HC+x264+VICTRY&amp;tr=udp%3A%2F%2Ftracker.leechers-paradise.org%3A6969&amp;tr=udp%3A%2F%2Fzer0day.ch%3A1337&amp;tr=udp%3A%2F%2Fopen.demonii.com%3A1337&amp;tr=udp%3A%2F%2Ftracker.coppersurfer.tk%3A6969&amp;tr=udp%3A%2F%2Fexodus.desync.com%3A6969","seeders":8,"leechers":0,"uploader":"shawnmurthy","files":2,"time":1443287351,"description":"FOR SCREENTSHOTS VISIT HERE...[URL]http://victry.cc/3be869fb3ce086eb5715bb4a14a8625ce188a5f2[/URL]\r\n\r\nFor First Sources For WEB-DL, TS, Cams, Hdrips Email Me ok    THANKS\r\n\r\nInvoked 2015 720p HDRip HC x264 VICTRY\r\n \nhttp://www.imdb.com/title/tt3837162/\r\n\r\nA group of young people went on a abandoned hostel in Sligo, Ireland. After they play a really creepy game, all of them disappear.\r\n\r\nDirectors: Humberto Rosa, Thairon Mendes\r\nWriters: Aaron Gibson, Humberto Rosa (story), 1 more credit »\r\nStars: Patrick Murphy, Ciara Rose Burke, Lynn Larkin | See full cast and crew »\r\n\r\nVideo\r\nID                                       : 1\r\nFormat                                   : AVC\r\nFormat/Info                              : Advanced Video Codec\r\nFormat profile                           :   \r\nFormat settings, CABAC                   : Yes\r\nFormat settings, ReFrames                : 2 frames\r\nFormat settings, GOP                     : M=3, N=25\r\nMuxing mode                              : Container   \r\nCodec ID                                 : avc1\r\nCodec ID/Info                            : Advanced Video Coding\r\nDuration                                 : 1h 25mn\r\nBit rate                                 : 3 000 Kbps\r\nWidth                                    : 1 280 pixels\r\nHeight                                   : 720 pixels\r\nDisplay aspect ratio                     : 16:9\r\nFrame rate mode                          : Constant\r\nFrame rate                               : 23.976 fps\r\nColor space                              : YUV\r\nChroma subsampling                       : 4:2:0\r\nBit depth                                : 8 bits\r\nScan type                                : Progressive\r\nBits/(Pixel*Frame)                       : 0.136\r\nStream size                              : 1.79 GiB (97%)\r\nLanguage                                 : English\r\n\r\nAudio\r\nID                                       : 2\r\nFormat                                   : AAC\r\nFormat/Info                              : Advanced Audio Codec\r\nFormat profile                           : LC\r\nCodec ID                                 : 40\r\nDuration                                 : 1h 25mn\r\nBit rate mode                            : Constant\r\nBit rate                                 : 96.0 Kbps\r\nChannel count                            : 2 channels\r\nChannel positions                        : Front: L R\r\nSampling rate                            : 48.0 KHz\r\nCompression mode                         : Lossy\r\nStream size                              : 59.1 MiB (3%)\r\nLanguage                                 : English","torrent":{"xt":"urn:btih:3be869fb3ce086eb5715bb4a14a8625ce188a5f2","amp;dn":"Invoked+2015+720p+HDRip+HC+x264+VICTRY","amp;tr":["udp%3A%2F%2Ftracker.leechers-paradise.org%3A6969","udp%3A%2F%2Fzer0day.ch%3A1337","udp%3A%2F%2Fopen.demonii.com%3A1337","udp%3A%2F%2Ftracker.coppersurfer.tk%3A6969","udp%3A%2F%2Fexodus.desync.com%3A6969"],"infoHash":"3be869fb3ce086eb5715bb4a14a8625ce188a5f2","infoHashBuffer":{"type":"Buffer","data":[59,232,105,251,60,224,134,235,87,21,187,74,20,168,98,92,225,136,165,242]},"announce":[],"urlList":[]}}